<svg width="36" height="36" viewBox="0 0 36 36" fill="none" xmlns="http://www.w3.org/2000/svg">
    <path d="M9.5 24C7.6 24 6 25.6 6 27.5C6 29.4 7.6 31 9.5 31C11.4 31 13 29.4 13 27.5C13 25.6 11.4 24 9.5 24ZM9.5 29C8.7 29 8 28.3 8 27.5C8 26.7 8.7 26 9.5 26C10.3 26 11 26.7 11 27.5C11 28.3 10.3 29 9.5 29Z" fill="black"/>
    <path d="M23.5 24C21.6 24 20 25.6 20 27.5C20 29.4 21.5 31 23.5 31C25.4 31 27 29.4 27 27.5C27 25.6 25.4 24 23.5 24ZM23.5 29C22.7 29 22 28.3 22 27.5C22 26.7 22.7 26 23.5 26C24.3 26 25 26.7 25 27.5C25 28.3 24.3 29 23.5 29Z" fill="black"/>
    <path d="M33 20.1V20H32.9L29.4 14.5C31 13.6 32 12 32 10.3V9.7C32 7.1 29.9 5 27.3 5H18.8C16.9 5 15.1 6.2 14.4 8H5C3.3 8 2 9.3 2 11V28H4V11C4 10.4 4.4 10 5 10H15.9L16 9.2C16.3 7.9 17.4 7 18.7 7H27.2C28.8 7 30 8.2 30 9.7V10.2C30 11.7 28.8 12.9 27.3 12.9H24V21.9H31.8L32 22.2V25C32 25.6 31.6 26 31 26H29V28H31C32.7 28 34 26.7 34 25V21.7L33 20.1ZM26 20V15H27.5L30.6 20H26Z" fill="black"/>
    <path d="M19 9H27V11H19V9Z" fill="black"/>
    <path d="M20 22H22V13H15V28H17V15H20V22Z" fill="black"/>
    <path d="M6 20H13V13H6V20ZM8 15H11V18H8V15Z" fill="black"/>
</svg>
