<svg width="46" height="46" version="1.1" viewBox="0 0 12.171 12.171" xmlns="http://www.w3.org/2000/svg">
    <g transform="translate(-38.1 -80.433)">
        <g transform="matrix(.023771 0 0 .023771 38.1 80.433)" fill="#0383a3">
            <path d="m457.59 114.95c0-8.574-3.342-16.632-9.409-22.692 0-1e-3 0-1e-3 -1e-3 -1e-3l-83.01-82.893c-12.509-12.491-32.861-12.489-45.368 0l-310.39 309.95c-6.069 6.06-9.411 14.12-9.411 22.695 0 8.574 3.342 16.633 9.411 22.693l83.009 82.892c6.255 6.247 14.469 9.369 22.685 9.369 8.215 0 16.431-3.123 22.684-9.368l310.39-309.95c6.066-6.061 9.408-14.12 9.408-22.694zm-30.607 1.465-18.953 18.926-24.28-24.246c-5.862-5.855-15.358-5.847-21.213 0.016-5.854 5.863-5.847 15.36 0.016 21.214l24.25 24.215-20.419 20.391-24.28-24.246c-5.861-5.854-15.357-5.848-21.213 0.016-5.854 5.863-5.847 15.36 0.016 21.214l24.249 24.215-20.419 20.391-24.28-24.245c-5.862-5.855-15.358-5.847-21.213 0.016-5.854 5.863-5.847 15.36 0.016 21.214l24.249 24.215-20.419 20.39-24.28-24.246c-5.861-5.854-15.357-5.848-21.213 0.016-5.854 5.863-5.847 15.36 0.016 21.214l24.249 24.215-20.423 20.387-24.28-24.245c-5.862-5.855-15.358-5.847-21.213 0.016-5.854 5.863-5.847 15.36 0.016 21.214l24.249 24.215-20.419 20.391-24.28-24.245c-5.862-5.854-15.358-5.848-21.213 0.016-5.854 5.863-5.847 15.36 0.016 21.214l24.249 24.214-20.419 20.39-24.28-24.246c-5.861-5.855-15.357-5.847-21.213 0.016-5.854 5.863-5.847 15.36 0.016 21.214l24.249 24.215-20.323 20.291c-0.818 0.816-2.151 0.817-2.972-1e-3l-83.01-82.893c-0.503-0.502-0.608-1.073-0.608-1.464 0-0.392 0.105-0.963 0.608-1.465l310.39-309.95c0.41-0.409 0.948-0.614 1.486-0.614 0.539 0 1.077 0.205 1.487 0.614l83.009 82.893c0.503 0.502 0.608 1.073 0.608 1.464 1e-3 0.391-0.105 0.962-0.606 1.464z" />
            <path d="m497 204.74h-55.25c-8.284 0-15 6.716-15 15.001s6.716 15.001 15 15.001h19l-226.4 226.08v-18.996c0-8.284-6.716-15.001-15-15.001s-15 6.716-15 15.001v55.174c0 8.284 6.716 15.001 15 15.001h55.25c8.284 0 15-6.716 15-15.001 0-8.284-6.716-15.001-15-15.001h-19l226.4-226.08v18.995c0 8.284 6.716 15.001 15 15.001s15-6.716 15-15.001v-55.173c0-8.284-6.716-15-15-15z" />
        </g>
    </g>
</svg>
