<svg
        width="39.998"
        height="40"
        version="1.1"
        viewBox="0 0 10.583 10.583"
        xmlns="http://www.w3.org/2000/svg"
>
    <g transform="translate(-135.32 -154.21)">
        <g
                transform="matrix(.00058595 0 0 .00058595 135.32 154.21)"
                clip-rule="evenodd"
                fill="#fff"
                fill-rule="evenodd"
                image-rendering="optimizeQuality"
                shape-rendering="geometricPrecision"
        >
            <g fill="#fff">
                <path
                        className="fil0"
                        d="m9028.7 18061c-1415.8 3.45-2723.9-32.52-3996-109.97-1166.3-70.97-2231-474.03-3079-1165.5-818.25-667.23-1377-1569.4-1660.8-2681.2-246.93-967.89-260.03-1918-272.57-2837-9.1-659.37-18.47-1440.7-20.39-2235.2 1.93-797.85 11.3-1579.2 20.39-2238.5 12.54-918.85 25.63-1869 272.57-2837 283.73-1111.8 842.5-2013.9 1660.8-2681.2 848.01-691.47 1912.6-1094.5 3079.1-1165.5 1272.2-77.31 2580.6-113.41 3999.3-109.97 1416.2-3.03 2723.9 32.66 3996 109.97 1166.3 70.97 2231 474.03 3079 1165.5 818.39 667.23 1377 1569.4 1660.8 2681.2 246.93 967.89 260.03 1918.2 272.57 2837 9.1 659.37 18.6 1440.7 20.39 2235.2-1.79 797.85-11.3 1579.2-20.39 2238.5-5.24 389.7-327.14 701.12-715.03 695.88-389.7-5.37-701.12-325.62-695.88-715.17 8.96-655.51 18.47-1431.7 20.26-2219.2-1.79-784.21-11.3-1560.4-20.26-2215.9-11.44-836.58-23.29-1701.7-228.88-2507.4-207.38-812.74-606.18-1464.2-1185.2-1936.5-626.3-510.82-1391.1-797.03-2273-850.63-1242.2-75.52-2521-110.38-3910.3-107.49-1392.6-3.31-2671.5 31.97-3913.8 107.49-881.91 53.61-1646.6 339.81-2273 850.49-579.03 472.23-977.82 1123.8-1185.2 1936.6-205.59 805.71-217.44 1670.8-228.88 2507.4-8.96 655.51-18.33 1431.7-20.26 2219.2 1.93 784.21 11.3 1560.4 20.26 2215.9 11.44 836.58 23.29 1701.7 228.88 2507.4 207.38 812.74 606.18 1464.2 1185.2 1936.5 626.44 510.82 1391.1 797.03 2273 850.63 1242.2 75.52 2521.4 110.79 3910.4 107.35 190.85 0.45 379.55 0.18 566.32-0.81v-5149.3l-1587.4 0.01c-389.7 0-705.53-315.84-705.53-705.53v-776.08c0-389.7 315.84-705.53 705.53-705.53l1587.4-0.01v-2357.3c0-859.45 349.05-1676 982.78-2299.4 615.14-605.07 1439.9-952.18 2262.7-952.18 218.54 0 597.08 29.77 954.8 66.15 359.66 36.65 632.64 340.36 632.64 701.8v713.66c0 389.7-315.84 705.53-705.53 705.53h-881.91c-584.54 0-1058.3 473.75-1058.3 1058.3v2363.5h1726.3c423.17 0 751 369.85 700.56 789.86l-93.43 776.08c-42.71 354.42-343.53 621.2-700.56 621.2l-1632.9 0.01v5101.1c391.68-15.65 777.64-35.08 1160.2-58.33 881.91-53.61 1646.6-339.81 2273-850.63 417.11-340.23 743.01-776.77 968.58-1297.6 154.88-357.45 570.21-521.84 927.8-366.96s521.84 570.21 367.1 927.8c-316.25 730.19-777.73 1346-1371.8 1830.4-848.01 691.61-1912.6 1094.5-3079 1165.5-1322 80.45-2676.4 116.13-3999.5 109.97z"
                        fill="#fff"
                />
            </g>
        </g>
    </g>
</svg>
