<svg width="52.601" height="40" version="1.1" viewBox="0 0 13.917 10.583" xmlns="http://www.w3.org/2000/svg">
    <g transform="translate(-38.1 -96.659)">
        <g transform="matrix(.027182 0 0 .027182 38.1 94.992)" fill="#0383a3">
            <g fill="#0383a3">
                <g fill="#0383a3">
                    <path d="m502.66 88.689-47.636-19.447c-41.857-17.072-88.946-5.939-117.18 27.705l-24.674 29.405c-56.451-37.595-133.58-27.503-178.17 25.642-48.584 57.897-21.705 25.785-131.51 157.17-5.305 6.348-4.47 15.793 1.868 21.111l45.966 38.57c6.356 5.333 15.84 4.492 21.157-1.877l25.545-30.596 55.567 46.626c32.18 27.003 80.365 24.466 107.42-7.778l38.565-45.961 4e-3 -4e-3 77.788-92.704c12.391-14.768 13.411-35.425 4.113-51.577l25.317-30.171c3.806-4.534 10.307-5.97 16.178-3.576l47.62 19.436c7.791 3.183 16.677-0.68 19.679-8.53l20.73-54.196c2.914-7.618-0.79-16.166-8.341-19.248zm-264.64 267.25c-15.815 18.848-44.924 21.052-65.151 4.079l-55.623-46.673 28.842-34.545c12.211-14.55 32.348-18.895 50.224-12.502-12.993 19.577-14.984 44.529-4.917 66.844 3.405 7.549 12.286 10.914 19.842 7.505 7.552-3.407 10.913-12.291 7.505-19.842-5.719-12.678-4.698-26.732 2.467-37.719l45.739 38.38zm116.36-138.67-68.145 81.212c-24.188-20.296-29.578-24.819-57.458-48.212-27.991-23.497-77.632-24.17-105.69 9.274-8.595 10.294-55.405 66.361-64 76.657l-22.977-19.28c98.409-117.75 73.277-87.725 121.87-145.64 37.309-44.463 103.47-50.252 147.94-12.943 50.058 42.004 46.596 39.31 48.811 40.439 3.963 5.704 4.029 13.273-0.348 18.491zm113.35-80.177-33.422-13.642c-17.985-7.336-38.279-2.487-50.494 12.07l-24.135 28.762-22.982-19.285 24.136-28.763c19.819-23.622 53.12-31.34 82.859-19.211l34.049 13.9z" />
                    <path d="m498.72 337.31-51.47-89.144c-5.769-9.992-20.219-9.98-25.982 0l-52.463 90.861c-0.039 0.068-0.078 0.137-0.117 0.206-6.171 11.09-9.434 23.691-9.434 36.441 0 41.358 33.647 75.005 75.005 75.005s75.005-33.647 75.005-75.005c0-13.529-3.647-26.794-10.544-38.364zm-64.461 83.367c-24.815 0-45.003-20.188-45.003-45.003 0-7.62 1.934-15.141 5.594-21.756l39.409-68.251 38.534 66.74c0.039 0.067 0.078 0.134 0.118 0.201 4.154 6.942 6.35 14.918 6.35 23.065 1e-3 24.816-20.188 45.004-45.002 45.004z" />
                </g>
            </g>
        </g>
    </g>
</svg>
