<svg
        width="39.999"
        height="40"
        version="1.1"
        viewBox="0 0 10.583 10.583"
        xmlns="http://www.w3.org/2000/svg"
>
    <g transform="translate(23.784 -63.147)">
        <path
                d="m-18.388 73.731c-0.03504 0-0.07009 0-0.10537-1.76e-4 -0.82957 2e-3 -1.5961-0.01906-2.3415-0.06443-0.68342-0.04157-1.3073-0.27775-1.8042-0.68292-0.47946-0.39097-0.80688-0.9196-0.97314-1.571-0.14469-0.56715-0.15236-1.1239-0.15971-1.6624-0.0053-0.38636-0.01082-0.84418-0.01195-1.3098 0.0011-0.46751 0.0066-0.92533 0.01195-1.3117 0.0073-0.5384 0.01502-1.0951 0.15971-1.6624 0.16625-0.65145 0.49367-1.1801 0.97314-1.571 0.4969-0.40518 1.1207-0.64136 1.8042-0.68294 0.74544-0.0453 1.5121-0.06645 2.3435-0.06444 0.82981-0.0018 1.5961 0.01914 2.3415 0.06444 0.68342 0.04158 1.3073 0.27776 1.8042 0.68294 0.47954 0.39097 0.80688 0.9196 0.97314 1.571 0.14469 0.56715 0.15236 1.124 0.15971 1.6624 0.0053 0.38636 0.0109 0.84419 0.01195 1.3098-1e-3 0.46751-0.0066 0.92533-0.01195 1.3117-0.0031 0.22835-0.19169 0.41083-0.41898 0.40776-0.22835-0.0031-0.41083-0.1908-0.40776-0.41906 0.0053-0.3841 0.01082-0.83894 0.01187-1.3004-1e-3 -0.45952-0.0066-0.91435-0.01187-1.2985-0.0067-0.4902-0.01365-0.99712-0.13412-1.4692-0.12152-0.47623-0.3552-0.85799-0.69448-1.1347-0.36698-0.29932-0.81512-0.46703-1.3319-0.49844-0.72791-0.04425-1.4772-0.06468-2.2913-0.06298-0.81601-0.0019-1.5654 0.01873-2.2933 0.06298-0.51676 0.03141-0.96482 0.19912-1.3319 0.49836-0.33929 0.27671-0.57296 0.65847-0.69448 1.1348-0.12047 0.47211-0.12742 0.97903-0.13412 1.4692-0.0052 0.3841-0.01074 0.83894-0.01187 1.3004 0.0011 0.45952 0.0066 0.91435 0.01187 1.2985 0.0067 0.4902 0.01365 0.99712 0.13412 1.4692 0.12152 0.47623 0.3552 0.85799 0.69448 1.1347 0.36706 0.29932 0.81512 0.46703 1.3319 0.49844 0.72791 0.04425 1.4775 0.06492 2.2914 0.0629 0.81609 0.0019 1.5653-0.01865 2.2932-0.0629 0.51676-0.03141 0.96482-0.19912 1.3319-0.49844 0.24441-0.19936 0.43538-0.45516 0.56755-0.76037 0.09076-0.20945 0.33412-0.30578 0.54365-0.21502 0.20953 0.09076 0.30578 0.33412 0.2151 0.54365-0.18531 0.42786-0.45572 0.78871-0.80381 1.0725-0.4969 0.40526-1.1207 0.64136-1.8042 0.68294-0.71386 0.04344-1.4472 0.0646-2.2382 0.0646zm2.4588-5.2917c0-1.4247-1.1591-2.5838-2.5838-2.5838-1.4247 0-2.5838 1.1591-2.5838 2.5838 0 1.4247 1.1592 2.5838 2.5838 2.5838 1.4247 0 2.5838-1.1591 2.5838-2.5838zm-0.82682 0c0 0.96878-0.78815 1.757-1.757 1.757-0.96878 0-1.757-0.78823-1.757-1.757 0-0.96877 0.78823-1.757 1.757-1.757 0.96886 0 1.757 0.78823 1.757 1.757zm1.1162-3.4107c-0.34244 0-0.62012 0.2776-0.62012 0.62012s0.27768 0.62012 0.62012 0.62012c0.34252 0 0.62012-0.2776 0.62012-0.62012s-0.2776-0.62012-0.62012-0.62012z"
                fill="#fff"
                stroke-width=".020671"
        />
    </g>
</svg>
