<svg width="30" height="30" version="1.1" viewBox="0 0 7.9375 7.9375" xmlns="http://www.w3.org/2000/svg">
    <g transform="translate(-29.029 -98.576)">
        <g transform="matrix(.26458 0 0 .26458 29.029 98.576)">
            <g transform="scale(.058594)" fill="#0383a3">
                <g fill="#0383a3">
                    <g fill="#0383a3">
                        <path d="m399.03 265.92-54.092 54.073h-28.602c2.373-6.678 3.666-13.859 3.666-21.333 0-35.249-28.751-64-64-64h-103.21l-24.798-8.259v-34.4c0-11.782-9.551-21.333-21.333-21.333h-85.334c-11.782 0-21.333 9.551-21.333 21.333v298.67c0 11.782 9.551 21.333 21.333 21.333h85.333c11.782 0 21.333-9.551 21.333-21.333v-21.342h127.07c60.397 0 119.54-17.22 170.51-49.648l3.637-2.917 60.331-60.352c24.927-24.895 24.927-65.568-3e-3 -90.498-24.929-24.931-65.602-24.931-90.51 9e-3zm-313.7 203.41h-42.666v-256h42.667v256zm374.05-143.1-58.654 58.674c-43.686 27.281-94.146 41.754-145.66 41.754h-127.06v-155.29l14.593 4.86c2.173 0.724 4.449 1.093 6.74 1.093h106.67c11.685 0 21.333 9.649 21.333 21.333 0 11.685-9.649 21.333-21.333 21.333-28.444 0-28.444 42.667 0 42.667h97.771c5.657 0 11.082-2.247 15.082-6.246l60.352-60.331c8.257-8.267 21.899-8.267 30.163-3e-3s8.265 21.908 0.01 30.152z" />
                        <path d="m256 192c35.355 0 64-28.645 64-64s-28.645-64-64-64-64 28.645-64 64 28.645 64 64 64zm0-85.333c11.791 0 21.333 9.542 21.333 21.333s-9.542 21.333-21.333 21.333-21.333-9.542-21.333-21.333 9.542-21.333 21.333-21.333z" />
                        <path d="m448 128c35.355 0 64-28.645 64-64s-28.645-64-64-64-64 28.645-64 64 28.645 64 64 64zm0-85.333c11.791 0 21.333 9.542 21.333 21.333s-9.542 21.333-21.333 21.333-21.333-9.542-21.333-21.333 9.542-21.333 21.333-21.333z" />
                    </g>
                </g>
            </g>
        </g>
    </g>
</svg>
