<svg width="30.33" height="24" version="1.1" viewBox="0 0 8.0248 6.35" xmlns="http://www.w3.org/2000/svg">
    <g transform="translate(22.275 -66.12)">
        <path
                d="m-20.677 68.018c-0.17314 0-0.31347-0.14033-0.31347-0.31347 0-0.17308 0.14033-0.31347 0.31347-0.31347 0.17314 0 0.31347 0.14039 0.31347 0.31347 0 0.17314-0.14033 0.31347-0.31347 0.31347zm-0.2441 1.9489c-0.01353-0.01249-0.3352-0.31108-0.66006-0.72184-0.46084-0.58273-0.69453-1.0941-0.69453-1.5201v-0.03839c0-0.86381 0.7031-1.5666 1.5673-1.5666s1.5673 0.70279 1.5673 1.5666v0.03839c0 0.42594-0.23369 0.93734-0.69453 1.5201-0.32486 0.41075-0.64647 0.70934-0.66 0.72184l-0.21282 0.19671zm0.21276-0.67341c0.10941-0.11498 0.24845-0.26914 0.38614-0.44375 0.35743-0.45337 0.55426-0.85273 0.55426-1.1248v-0.03839c0-0.51814-0.42184-0.93967-0.9404-0.93967s-0.9404 0.42153-0.9404 0.93967v0.03839c0 0.27202 0.19684 0.67138 0.55426 1.1248 0.13763 0.17461 0.27673 0.32871 0.38614 0.44375zm4.9215-1.9024c-0.17314 0-0.31347 0.14039-0.31347 0.31347 0 0.17314 0.14033 0.31347 0.31347 0.31347 0.17314 0 0.31347-0.14033 0.31347-0.31347 0-0.17308-0.14033-0.31347-0.31347-0.31347zm1.536 0.29559v0.03839c0 0.42588-0.23369 0.93728-0.69453 1.52-0.32486 0.41075-0.64647 0.70934-0.66 0.72184l-0.21282 0.19671-0.21275-0.19671c-0.01353-0.01249-0.3352-0.31108-0.66006-0.72184-0.46084-0.58273-0.69453-1.0941-0.69453-1.5201v-0.03839c0-0.86381 0.7031-1.5666 1.5673-1.5666s1.5673 0.70279 1.5673 1.5667zm-0.62694 0c0-0.51814-0.42184-0.93973-0.9404-0.93973s-0.9404 0.42159-0.9404 0.93973v0.03839c0 0.27196 0.19684 0.67139 0.55426 1.1247 0.13763 0.17461 0.27673 0.32878 0.38614 0.44375 0.10941-0.11498 0.24845-0.26914 0.38614-0.44375 0.35743-0.45337 0.55426-0.85273 0.55426-1.1248zm-2.1338 3.0593 0.32694 0.32688h-3.1257l0.32688-0.32688-0.44333-0.44332-1.0837 1.0837 1.0837 1.0837 0.44333-0.44332-0.32688-0.32694h3.1257l-0.32688 0.32694 0.44332 0.44332 1.0837-1.0837-1.0837-1.0837z"
                fill="#0383a3"
                stroke-width=".015673"
        />
    </g>
</svg>
