<svg width="30" height="30" version="1.1" viewBox="0 0 7.9375 7.9375" xmlns="http://www.w3.org/2000/svg">
    <g transform="translate(-38.1 -80.433)">
        <g transform="matrix(.015503 0 0 .015503 38.1 80.433)" fill="#0383a3">
            <g fill="#0383a3">
                <g fill="#0383a3">
                    <g fill="#0383a3">
                        <path d="m279 364c0 22.056 17.944 40 40 40h47c22.056 0 40-17.944 40-40v-47c0-22.056-17.944-40-40-40h-47c-22.056 0-40 17.944-40 40zm40-47h47l0.025 46.999s-7e-3 1e-3 -0.025 1e-3h-47z" />
                        <circle cx="386" cy="210" r="20" />
                        <circle cx="299" cy="210" r="20" />
                        <path d="m492 352c11.046 0 20-8.954 20-20v-212c0-44.112-35.888-80-80-80h-26v-20c0-11.046-8.954-20-20-20s-20 8.954-20 20v20h-91v-20c0-11.046-8.954-20-20-20s-20 8.954-20 20v20h-90v-20c0-11.046-8.954-20-20-20s-20 8.954-20 20v20h-25c-44.112 0-80 35.888-80 80v312c0 44.112 35.888 80 80 80h352c44.112 0 80-35.888 80-80 0-11.046-8.954-20-20-20s-20 8.954-20 20c0 22.056-17.944 40-40 40h-352c-22.056 0-40-17.944-40-40v-312c0-22.056 17.944-40 40-40h25v20c0 11.046 8.954 20 20 20s20-8.954 20-20v-20h90v20c0 11.046 8.954 20 20 20s20-8.954 20-20v-20h91v20c0 11.046 8.954 20 20 20s20-8.954 20-20v-20h26c22.056 0 40 17.944 40 40v212c0 11.046 8.954 20 20 20z" />
                        <circle cx="125" cy="384" r="20" />
                        <circle cx="125" cy="210" r="20" />
                        <circle cx="125" cy="297" r="20" />
                        <circle cx="212" cy="297" r="20" />
                        <circle cx="212" cy="210" r="20" />
                        <circle cx="212" cy="384" r="20" />
                    </g>
                </g>
            </g>
        </g>
    </g>
</svg>
