<svg width="48" height="40" version="1.1" viewBox="0 0 12.7 10.583" xmlns="http://www.w3.org/2000/svg">
    <g transform="translate(-44.904 -45.609)">
        <g transform="matrix(.024805 0 0 .024805 44.904 44.551)" fill="#0383a3">
            <g fill="#0383a3">
                <g fill="#0383a3">
                    <path d="m428.74 232.76c-57.58-12.951-115.16-19.427-172.74-19.427s-115.16 6.476-172.74 19.427c-48.676 10.948-83.26 54.175-83.26 104.07v89.84h512v-89.84c0-49.892-34.584-93.119-83.26-104.07zm40.593 151.24h-426.67v-47.173c0-29.935 20.75-55.871 49.956-62.44 54.525-12.265 108.97-18.387 163.38-18.387s108.85 6.122 163.38 18.387c29.205 6.569 49.956 32.505 49.956 62.44v47.173z" />
                    <path d="m213.33 128h-42.667c-35.346 0-64 28.654-64 64v64h170.67v-64c0-35.346-28.653-64-64-64zm21.334 85.333h-85.333v-21.333c0-11.782 9.551-21.333 21.333-21.333h42.667c11.782 0 21.333 9.551 21.333 21.333z" />
                    <path d="m341.33 128h-42.667c-35.346 0-64 28.654-64 64v64h170.67v-64c0-35.346-28.653-64-64-64zm21.334 85.333h-85.333v-21.333c0-11.782 9.551-21.333 21.333-21.333h42.667c11.782 0 21.333 9.551 21.333 21.333z" />
                    <rect x="42.667" y="426.67" width="42.667" height="42.667" />
                    <rect x="426.67" y="426.67" width="42.667" height="42.667" />
                    <path d="m405.33 42.667h-298.67c-35.346 0-64 28.654-64 64v143.29h42.667v-143.29c0-11.782 9.551-21.333 21.333-21.333h298.67c11.782 0 21.333 9.551 21.333 21.333v108.05h42.667v-108.05c-1e-3 -35.347-28.654-64-64.001-64z" />
                </g>
            </g>
        </g>
    </g>
</svg>
