<svg width="46" height="46" version="1.1" viewBox="0 0 12.171 12.171" xmlns="http://www.w3.org/2000/svg">
    <g transform="translate(17.084 -103.11)">
        <g transform="matrix(.023771 0 0 .023771 -17.084 103.11)" fill="#0383a3">
            <g fill="#0383a3">
                <g fill="#0383a3">
                    <path
                            d="m504.4 389.01c-31.326-26.343-66.046-46.927-102.64-61.75-6.193-48.325-20.188-91.704-39.951-125.56l101.28-101.28c8.331-8.331 8.331-21.839 0-30.17s-21.839-8.331-30.17 0l-96.611 96.611c-6.9-7.426-14.212-13.911-21.892-19.346 16.56-15.565 26.917-37.654 26.917-62.176 0-47.131-38.202-85.333-85.334-85.333s-85.333 38.202-85.333 85.333c0 24.522 10.357 46.611 26.917 62.176-44.515 31.505-76.746 98.288-87.239 178.93-36.96 14.913-71.826 35.818-102.97 62.756-8.911 7.708-9.886 21.18-2.178 30.091s21.18 9.886 30.091 2.178c21.95-18.987 46.027-34.583 71.483-46.822-0.063 3.107-0.106 6.222-0.106 9.354 0 39.359 5.14 77.561 14.866 112.4 2.572 9.22 10.973 15.597 20.546 15.597h71.253c11.782 0 21.333-9.551 21.333-21.333v-76.495c11.844-11.642 30.823-11.642 42.667 0v76.495c0 11.782 9.551 21.333 21.333 21.333h71.253c9.573 0 17.974-6.377 20.548-15.598 9.726-34.841 14.866-73.044 14.866-112.4 0-2.868-0.036-5.721-0.089-8.568 25.364 12.16 49.495 27.563 71.692 46.229 9.017 7.583 22.475 6.42 30.058-2.597s6.421-22.474-2.597-30.057zm-148.22-76.987c-29.963-8.012-60.705-12.417-91.479-13.209l65.699-65.699c11.222 21.989 20.176 48.822 25.78 78.908zm-142.84-226.68c0-23.567 19.099-42.667 42.667-42.667s42.667 19.099 42.667 42.667-19.1 42.666-42.668 42.666-42.666-19.099-42.666-42.666zm42.666 85.333c17.643 0 34.859 9.531 50.136 26.36l-105.37 105.37c-15.089 2.095-30.058 5.058-44.812 8.927 15.573-82.706 56.515-140.66 100.04-140.66zm106.67 213.33c0 29.67-3.225 58.522-9.344 85.333h-33.323v-55.423c0-11.142-4.425-21.837-12.307-29.72-28.555-28.555-74.831-28.555-103.39 0-7.882 7.882-12.307 18.577-12.307 29.72v55.424h-33.323c-6.119-26.811-9.344-55.663-9.344-85.333 0-9.015 0.297-17.883 0.861-26.578 68.216-21.672 142.8-21.428 211.66 0.733 0.535 8.461 0.818 17.082 0.818 25.844z"
                            fill="#0383a3"
                    />
                </g>
            </g>
        </g>
    </g>
</svg>
