<svg width="40" height="40" version="1.1" viewBox="0 0 10.583 10.583" xmlns="http://www.w3.org/2000/svg">
    <g transform="translate(-38.101 -80.433)">
        <path
                d="m47.63 84.443v0.04134c0 0.91181-0.74182 1.6536-1.6536 1.6536h-2.1291v0.84749c0 0.22833-0.18508 0.41341-0.41341 0.41341-0.22833 0-0.41341-0.18508-0.41341-0.41341v-0.84749h-3.0592v0.84749c0 0.22833-0.18508 0.41341-0.41341 0.41341-0.22833 0-0.41341-0.18508-0.41341-0.41341v-2.5425c0-0.22833 0.18508-0.41341 0.41341-0.41341 0.22832 0 0.41341 0.18508 0.41341 0.41341v0.86816h3.0592v-0.86816c0-0.22833 0.18508-0.41341 0.41341-0.41341 0.22832 0 0.41341 0.18508 0.41341 0.41341v0.86816h2.1291c0.45591 0 0.82682-0.37091 0.82682-0.82682v-0.04134c0-0.22833 0.18508-0.41341 0.41341-0.41341 0.22832 0 0.41341 0.18508 0.41341 0.41341zm-9.5291-2.5631c0-0.79784 0.64909-1.4469 1.4469-1.4469s1.4469 0.64909 1.4469 1.4469c0 0.79784-0.64909 1.4469-1.4469 1.4469s-1.4469-0.64909-1.4469-1.4469zm0.82682 0c0 0.34193 0.27818 0.62011 0.62011 0.62011 0.34193 0 0.62011-0.27818 0.62011-0.62011 0-0.34193-0.27818-0.62011-0.62011-0.62011-0.34193 0-0.62011 0.27818-0.62011 0.62011zm3.0386 0c0-0.79784 0.64909-1.4469 1.4469-1.4469 0.79784 0 1.4469 0.64909 1.4469 1.4469 0 0.79784-0.64909 1.4469-1.4469 1.4469-0.79784 0-1.4469-0.64909-1.4469-1.4469zm0.82682 0c0 0.34193 0.27818 0.62011 0.62011 0.62011 0.34193 0 0.62011-0.27818 0.62011-0.62011 0-0.34193-0.27818-0.62011-0.62011-0.62011-0.34193 0-0.62011 0.27818-0.62011 0.62011zm-1.7983 7.6894c0 0.79784-0.64909 1.4469-1.4469 1.4469s-1.4469-0.64909-1.4469-1.4469c0-0.79784 0.64909-1.4469 1.4469-1.4469s1.4469 0.64909 1.4469 1.4469zm-0.82682 0c0-0.34193-0.27818-0.62011-0.62011-0.62011-0.34193 0-0.62011 0.27818-0.62011 0.62011 0 0.34193 0.27818 0.62011 0.62011 0.62011 0.34193 0 0.62011-0.27818 0.62011-0.62011zm4.6922 0c0 0.79784-0.64909 1.4469-1.4469 1.4469-0.79784 0-1.4469-0.64909-1.4469-1.4469 0-0.79784 0.64909-1.4469 1.4469-1.4469 0.79784 0 1.4469 0.64909 1.4469 1.4469zm-0.82682 0c0-0.34193-0.27818-0.62011-0.62011-0.62011-0.34193 0-0.62011 0.27818-0.62011 0.62011 0 0.34193 0.27818 0.62011 0.62011 0.62011 0.34193 0 0.62011-0.27818 0.62011-0.62011zm4.6508-7.6894c0 0.79784-0.64909 1.4469-1.4469 1.4469s-1.4469-0.64909-1.4469-1.4469c0-0.79784 0.64909-1.4469 1.4469-1.4469s1.4469 0.64909 1.4469 1.4469zm-0.82682 0c0-0.34193-0.27818-0.62011-0.62011-0.62011s-0.62011 0.27818-0.62011 0.62011c0 0.34193 0.27818 0.62011 0.62011 0.62011s0.62011-0.27818 0.62011-0.62011zm0.27471 7.7695c0.33406-0.24114 0.55209-0.63349 0.55209-1.076 0-0.72739-0.59179-1.3192-1.3192-1.3192-0.70871 0-1.2853 0.57658-1.2853 1.2853v2.0633c0 0.22833 0.18508 0.41341 0.41341 0.41341 0.22832 0 0.41341-0.18508 0.41341-0.41341v-0.70279h0.42298l0.47224 0.89561c0.07406 0.14046 0.21756 0.22068 0.36603 0.22068 0.06501 0 0.13097-0.01538 0.19246-0.04779 0.20197-0.10649 0.27936-0.35654 0.17287-0.55851zm-1.2255-1.1099c0-0.2528 0.20567-0.45847 0.45847-0.45847 0.27151 0 0.49237 0.22088 0.49237 0.49237 0 0.2756-0.22421 0.49981-0.49981 0.49981h-0.45103z"
                fill="#0383a3"
                stroke-width=".02067"
        />
    </g>
</svg>
