<svg width="38.333" height="46" version="1.1" viewBox="0 0 10.142 12.171" xmlns="http://www.w3.org/2000/svg">
    <g transform="translate(-49.389 -80.433)">
        <g
                id="_07-shower"
                transform="matrix(.06339 0 0 .06339 47.36 80.433)"
                fill="#0383a3"
                data-name="07-shower"
        >
            <path d="m140 0a52.059 52.059 0 0 0-51.874 48.565 56.109 56.109 0 0 0-47.545 47.435h-8.581v16h128v-16h-8.581a56.116 56.116 0 0 0-47.254-47.4 36 36 0 0 1 71.835 3.4v140h16v-140a52.059 52.059 0 0 0-52-52zm-4.8 96h-78.4a40.005 40.005 0 0 1 78.4 0z" />
            <circle cx="96" cy="176" r="8" />
            <circle cx="96" cy="152" r="8" />
            <circle cx="128" cy="176" r="8" />
            <circle cx="128" cy="152" r="8" />
            <circle cx="64" cy="176" r="8" />
            <circle cx="64" cy="152" r="8" />
            <circle cx="96" cy="128" r="8" />
            <circle cx="128" cy="128" r="8" />
            <circle cx="64" cy="128" r="8" />
        </g>
    </g>
</svg>
