<svg width="43.672" height="52" version="1.1" viewBox="0 0 11.555 13.758" xmlns="http://www.w3.org/2000/svg">
    <g transform="translate(-48.948 -80.433)">
        <g transform="matrix(.026872 0 0 .026872 47.846 80.433)" fill="#0383a3">
            <path d="m426 0h-340c-24.813 0-45 20.187-45 45v110c0 8.284 6.716 15 15 15h55v60.284c-22.468 2.497-40 21.593-40 44.716 0 19.555 12.541 36.228 30 42.42v27.58c0 44.998 31.449 82.79 73.521 92.551l-18.521 44.449h-70c-8.284 0-15 6.716-15 15s6.716 15 15 15h340c8.284 0 15-6.716 15-15s-6.716-15-15-15h-70l-18.521-44.449c42.072-9.761 73.521-47.553 73.521-92.551v-27.58c17.459-6.192 30-22.865 30-42.42 0-23.123-17.532-42.219-40-44.716v-60.284h55c8.284 0 15-6.716 15-15v-110c0-24.813-20.187-45-45-45zm-285 75c0-24.813 20.187-45 45-45h140c24.813 0 45 20.187 45 45v155h-230zm-70 65v-95c0-8.271 6.729-15 15-15h40.041c-9.438 12.544-15.041 28.129-15.041 45v65zm117.5 342 17.5-42h100l17.5 42zm192.5-137c0 35.841-29.159 65-65 65h-120c-35.841 0-65-29.159-65-65v-25h250zm30-70c0 8.271-6.729 15-15 15h-280c-8.271 0-15-6.729-15-15s6.729-15 15-15h280c8.271 0 15 6.729 15 15zm30-135h-40v-65c0-16.871-5.603-32.456-15.041-45h40.041c8.271 0 15 6.729 15 15z" />
            <path d="m296 60h-80c-8.284 0-15 6.716-15 15s6.716 15 15 15h80c8.284 0 15-6.716 15-15s-6.716-15-15-15z" />
        </g>
    </g>
</svg>
