<?xml version="1.0" standalone="no"?>
<!DOCTYPE svg PUBLIC "-//W3C//DTD SVG 20010904//EN"
 "http://www.w3.org/TR/2001/REC-SVG-20010904/DTD/svg10.dtd">
<svg version="1.0" xmlns="http://www.w3.org/2000/svg"
 width="260.000000pt" height="260.000000pt" viewBox="0 0 260.000000 260.000000"
 preserveAspectRatio="xMidYMid meet">
<metadata>
Created by potrace 1.14, written by Peter Selinger 2001-2017
</metadata>
<g transform="translate(0.000000,260.000000) scale(0.100000,-0.100000)"
fill="#000000" stroke="none">
<path d="M1261 1644 c-19 -24 -21 -40 -20 -161 0 -138 9 -178 39 -188 9 -3 29
-19 44 -35 14 -17 29 -31 34 -31 41 -7 56 -3 85 24 28 26 40 30 97 32 60 2 67
0 90 -27 28 -31 64 -41 95 -25 27 14 45 33 38 41 -7 7 -3 7 42 10 l30 1 3 71
3 71 -43 18 c-41 16 -104 71 -90 78 4 2 24 3 45 1 31 -1 40 2 47 20 4 11 5 26
2 31 -4 6 -6 20 -7 31 0 12 -9 31 -19 43 -18 20 -28 21 -257 21 l-238 0 -20
-26z m490 -42 c6 -16 6 -27 0 -31 -5 -4 -55 -6 -110 -5 -100 1 -101 0 -101
-23 0 -17 5 -24 18 -22 39 4 44 -1 41 -38 -2 -21 2 -47 9 -58 6 -11 12 -15 12
-9 0 15 110 10 146 -7 22 -11 29 -21 30 -47 1 -40 -9 -40 -47 -3 -20 20 -37
29 -56 27 -34 -3 -73 -26 -73 -43 0 -8 -14 -13 -35 -14 -19 0 -50 -1 -69 -1
-25 -1 -44 7 -72 31 -30 27 -42 32 -68 27 -17 -3 -41 -18 -53 -33 -12 -15 -25
-24 -30 -20 -10 10 -12 269 -2 283 5 6 87 10 229 11 l221 0 10 -25z m-77 -134
c-3 -4 -11 -5 -19 -1 -16 5 -20 25 -8 36 7 8 33 -25 27 -35z m-254 -148 c12
-23 -10 -53 -35 -49 -31 7 -42 35 -21 58 20 22 41 18 56 -9z m305 -1 c14 -42
-44 -68 -65 -29 -8 15 -6 24 10 40 22 22 46 18 55 -11z"/>
<path d="M1375 1560 c-17 -6 -20 -17 -21 -72 l-1 -64 62 0 62 0 -2 41 c-1 22
2 45 7 52 5 7 5 14 -2 18 -6 3 -8 10 -5 14 2 4 -8 7 -23 7 -15 -1 -34 1 -42 5
-8 4 -24 3 -35 -1z m57 -64 c3 -15 0 -27 -8 -30 -15 -6 -34 23 -27 42 8 21 30
13 35 -12z"/>
<path d="M340 1653 c-31 -12 -50 -37 -50 -65 0 -21 -6 -31 -20 -35 -25 -7 -26
-33 -1 -33 17 0 18 -8 17 -96 -1 -84 1 -97 17 -106 10 -5 22 -7 25 -3 4 3 7
50 8 103 2 119 0 111 24 105 15 -4 20 0 20 16 0 12 -4 20 -9 17 -5 -4 -16 -4
-23 -1 -13 5 -14 15 -9 57 1 3 15 9 32 13 16 4 28 12 26 18 -4 14 -34 19 -57
10z"/>
<path d="M478 1646 c-22 -16 -40 -55 -34 -72 5 -13 -5 -19 -26 -15 -16 2 -7
-38 9 -41 14 -3 16 -18 17 -103 1 -93 2 -100 21 -100 14 0 20 7 19 23 0 12 4
22 10 22 6 0 6 3 0 9 -5 6 -8 42 -6 80 3 61 6 71 22 71 10 0 22 5 26 11 8 14
-14 29 -33 22 -8 -3 -13 3 -13 18 0 27 14 53 30 55 5 1 15 2 20 3 6 0 10 7 10
15 0 17 -49 19 -72 2z"/>
<path d="M587 1653 c-14 -14 -7 -43 11 -43 25 0 31 7 25 31 -5 19 -23 25 -36
12z"/>
<path d="M79 1546 c-60 -19 -95 -127 -57 -173 6 -7 7 -13 2 -13 -9 0 36 -34
49 -36 4 -1 8 -2 10 -4 20 -16 123 12 112 31 -3 4 0 9 7 11 8 3 13 28 15 66 2
56 -1 64 -27 91 -35 34 -66 42 -111 27z m75 -42 c9 -8 17 -25 17 -37 1 -12 3
-31 3 -42 4 -61 -57 -102 -95 -64 -11 11 -19 22 -20 27 -7 60 -3 94 13 112 22
24 61 26 82 4z"/>
<path d="M590 1553 c-12 -3 -15 -23 -14 -113 1 -112 3 -122 29 -126 18 -3 17
-7 19 124 1 103 -4 122 -34 115z"/>
<path d="M751 1546 c-61 -20 -91 -91 -67 -161 8 -27 39 -63 55 -66 60 -10 113
7 131 42 17 31 -15 35 -49 6 -32 -26 -81 -27 -81 -1 0 8 -4 14 -9 14 -12 0 -7
91 7 118 19 33 61 29 96 -10 20 -24 30 -28 36 -19 29 48 -51 100 -119 77z"/>
<path d="M972 1540 c-39 -24 -56 -55 -57 -105 -1 -44 26 -99 53 -110 35 -14
85 -14 114 1 24 12 27 18 17 30 -7 9 -16 11 -23 6 -6 -5 -23 -12 -39 -16 -21
-5 -33 -1 -52 18 -41 41 -33 53 33 54 107 1 100 -2 95 38 -9 82 -77 123 -141
84z m84 -42 c16 -47 14 -48 -42 -48 -59 0 -60 1 -43 33 23 44 73 52 85 15z"/>
<path d="M673 1100 c0 -168 0 -170 22 -170 20 0 21 4 20 85 -1 94 12 120 61
120 30 1 46 -36 44 -101 -4 -99 -2 -106 23 -102 21 3 22 7 22 93 1 85 -1 92
-26 117 -27 28 -48 30 -106 13 -19 -6 -21 -4 -19 24 1 17 5 33 8 36 3 3 3 17
0 30 -3 18 -11 25 -27 25 l-23 0 1 -170z"/>
<path d="M1935 1250 c2 -11 0 -22 -5 -25 -6 -3 -5 -16 0 -30 11 -30 3 -36 -45
-30 -32 4 -41 1 -66 -26 -25 -27 -29 -39 -29 -89 0 -77 32 -120 89 -120 20 0
42 5 49 12 9 9 12 9 12 0 0 -7 14 -12 34 -12 l34 0 1 170 0 170 -39 0 c-33 0
-38 -3 -35 -20z m-5 -171 c10 -41 -3 -84 -27 -87 -25 -4 -41 21 -38 60 4 55
54 75 65 27z"/>
<path d="M543 1224 c-6 -3 -10 -16 -7 -28 3 -17 -1 -25 -16 -29 -18 -5 -30
-39 -12 -36 23 4 27 -8 28 -86 1 -52 6 -90 14 -100 16 -19 66 -20 74 0 3 10
-1 15 -13 15 -10 0 -21 6 -24 13 -9 24 -2 162 8 162 15 0 35 15 35 26 0 5 -6
9 -12 8 -32 -4 -40 2 -36 25 3 16 0 27 -9 30 -8 4 -15 6 -16 5 -1 0 -7 -3 -14
-5z"/>
<path d="M53 1152 c-82 -39 -66 -201 22 -218 85 -16 145 23 151 97 4 50 -19
104 -50 121 -31 17 -87 17 -123 0z m80 -57 c20 -9 24 -74 5 -93 -27 -27 -65
-4 -63 38 2 60 16 74 58 55z"/>
<path d="M259 1156 c0 -6 -2 -60 -2 -119 l-2 -108 40 3 40 3 0 77 c1 84 11
107 42 90 15 -9 18 -23 18 -89 l0 -78 40 0 40 0 -2 70 c-2 129 -3 138 -10 132
-3 -4 -12 1 -19 12 -13 19 -57 23 -81 8 -7 -5 -13 -5 -13 0 0 4 -5 1 -10 -7
-8 -13 -10 -13 -10 2 0 13 -8 17 -35 16 -19 -1 -35 -6 -36 -12z"/>
<path d="M988 1159 c-10 -6 -18 -7 -18 -3 0 14 -50 -51 -51 -66 0 -8 -2 -23
-4 -33 -6 -32 15 -86 43 -108 22 -17 37 -20 80 -17 57 5 84 26 55 42 -9 5 -18
5 -22 -1 -13 -18 -69 -15 -90 6 -45 45 -26 56 83 51 46 -2 56 10 45 58 -14 62
-75 97 -121 71z m55 -31 c9 -7 18 -24 19 -38 3 -23 0 -25 -47 -25 -44 0 -50 2
-47 20 3 19 36 55 51 55 4 0 15 -6 24 -12z"/>
<path d="M1156 1161 c-2 -3 -4 -57 -5 -118 l-1 -113 39 0 40 0 3 78 c3 76 3
77 31 80 15 2 28 6 28 10 11 66 0 84 -40 62 -12 -6 -21 -7 -21 -2 0 9 -69 13
-74 3z"/>
<path d="M1358 1151 c-30 -17 -59 -76 -53 -107 2 -10 4 -26 4 -35 1 -9 14 -31
30 -48 25 -27 36 -31 81 -31 45 0 56 4 81 31 16 17 30 39 30 48 4 38 -2 88
-12 107 -23 46 -110 64 -161 35z m98 -104 c-2 -41 -12 -57 -36 -57 -40 0 -52
80 -17 105 18 13 23 13 38 -1 10 -9 16 -28 15 -47z"/>
<path d="M1624 1158 c-3 -5 -9 -6 -14 -3 -11 7 -51 -45 -44 -56 7 -12 71 -12
78 0 8 12 39 7 44 -7 2 -7 -7 -12 -22 -12 -30 0 -90 -23 -99 -37 -31 -50 6
-113 66 -113 18 0 38 5 44 11 8 8 13 8 17 0 4 -6 25 -11 47 -11 29 0 38 3 33
12 -4 7 -8 46 -9 88 -1 82 -13 114 -47 127 -30 10 -88 11 -94 1z m66 -143 c0
-9 -7 -18 -15 -21 -23 -9 -45 3 -39 21 8 20 54 20 54 0z"/>
<path d="M2228 1159 c-27 -10 -54 -55 -59 -99 -4 -37 19 -98 44 -115 35 -25
102 -19 132 11 14 14 24 31 22 37 -6 20 -35 15 -48 -9 -21 -39 -96 -25 -100
19 -6 70 8 126 34 128 7 1 19 2 27 3 18 2 50 -23 50 -38 0 -7 9 -12 20 -13 23
-2 25 6 9 41 -18 38 -79 54 -131 35z"/>
<path d="M2406 1153 c-6 -13 0 -15 69 -17 44 -1 53 -12 30 -39 -8 -9 -15 -21
-15 -26 0 -5 -3 -11 -7 -13 -15 -6 -82 -111 -77 -120 3 -4 45 -8 95 -8 72 0
89 3 89 15 0 12 -14 15 -66 15 l-65 0 22 33 c13 17 26 34 29 37 20 18 80 114
77 123 -6 18 -175 17 -181 0z"/>
<path d="M2066 964 c-8 -21 1 -34 25 -34 23 0 26 35 3 44 -21 8 -21 8 -28 -10z"/>
</g>
</svg>
